<svg xmlns="http://www.w3.org/2000/svg" width="1670" height="343" fill="none"><path fill="#F4F4F4" d="M571.987 271.771c-13.409 0-25.519-2.346-36.331-7.04-10.727-4.777-19.569-11.565-26.525-20.365-6.872-8.884-11.23-19.443-13.074-31.679l35.702-5.28c2.514 10.392 7.711 18.396 15.589 24.011 7.878 5.615 16.845 8.422 26.902 8.422 5.615 0 11.063-.88 16.343-2.639 5.279-1.76 9.596-4.359 12.948-7.795 3.436-3.436 5.154-7.668 5.154-12.697 0-1.843-.293-3.603-.88-5.279-.503-1.76-1.383-3.395-2.64-4.903-1.257-1.509-3.059-2.934-5.405-4.274-2.263-1.341-5.155-2.557-8.675-3.646l-47.016-13.828c-3.52-1.006-7.627-2.431-12.32-4.275-4.609-1.843-9.093-4.483-13.451-7.92-4.358-3.436-8.004-7.961-10.937-13.576-2.849-5.699-4.274-12.865-4.274-21.497 0-12.152 3.059-22.251 9.177-30.297 6.118-8.046 14.289-14.038 24.514-17.977 10.224-3.939 21.538-5.866 33.942-5.782 12.487.167 23.634 2.304 33.439 6.41 9.806 4.108 18.019 10.1 24.64 17.978 6.621 7.794 11.398 17.348 14.331 28.662l-36.959 6.286c-1.341-5.867-3.813-10.812-7.417-14.834-3.604-4.023-7.92-7.082-12.949-9.177-4.944-2.096-10.14-3.227-15.588-3.395-5.364-.167-10.434.587-15.211 2.263-4.693 1.593-8.548 3.939-11.566 7.04-2.933 3.101-4.399 6.789-4.399 11.063 0 3.939 1.215 7.165 3.645 9.68 2.431 2.43 5.49 4.4 9.177 5.908a89.391 89.391 0 0 0 11.314 3.771l31.428 8.549c4.694 1.257 9.89 2.933 15.589 5.028 5.699 2.012 11.146 4.861 16.342 8.549 5.28 3.604 9.596 8.381 12.949 14.331 3.436 5.95 5.154 13.493 5.154 22.628 0 9.722-2.054 18.228-6.16 25.52-4.023 7.207-9.47 13.2-16.343 17.977-6.872 4.693-14.666 8.213-23.382 10.559-8.632 2.347-17.558 3.52-26.777 3.52zm102.807-158.397v-30.17h34.194v30.17h-34.194zm0 154.626V132.231h34.194V268h-34.194zm129.961 64.113c-7.71 0-15.044-1.257-22-3.771-6.956-2.431-13.199-5.867-18.731-10.309-5.447-4.358-9.889-9.47-13.325-15.336l31.679-15.337c2.179 4.022 5.28 7.081 9.303 9.177 4.107 2.095 8.548 3.142 13.325 3.142 5.113 0 9.932-.88 14.457-2.639 4.526-1.677 8.13-4.233 10.812-7.669 2.765-3.352 4.064-7.543 3.897-12.571v-39.474h4.274V132.231h29.919v145.072c0 3.352-.167 6.495-.502 9.428a53.783 53.783 0 0 1-1.509 8.926c-2.179 8.297-6.244 15.127-12.194 20.491-5.867 5.363-13.074 9.344-21.623 11.942-8.548 2.682-17.809 4.023-27.782 4.023zm-3.017-60.342c-12.488 0-23.424-3.142-32.811-9.428-9.386-6.286-16.72-14.834-22-25.645-5.196-10.812-7.794-23.006-7.794-36.583 0-13.828 2.64-26.106 7.92-36.833 5.364-10.811 12.865-19.318 22.503-25.52 9.638-6.202 20.952-9.303 33.942-9.303 12.906 0 23.759 3.143 32.559 9.429 8.8 6.286 15.463 14.834 19.989 25.645 4.525 10.811 6.788 23.006 6.788 36.582 0 13.577-2.305 25.771-6.914 36.583-4.526 10.811-11.314 19.359-20.366 25.645-9.051 6.286-20.323 9.428-33.816 9.428zm5.531-30.422c7.627 0 13.703-1.718 18.228-5.154 4.61-3.436 7.92-8.255 9.932-14.457 2.011-6.202 3.017-13.409 3.017-21.623 0-8.213-1.006-15.42-3.017-21.622-2.012-6.202-5.238-11.021-9.68-14.457-4.358-3.436-10.099-5.154-17.223-5.154-7.626 0-13.912 1.886-18.856 5.657-4.861 3.687-8.465 8.674-10.812 14.96-2.346 6.201-3.52 13.074-3.52 20.616 0 7.627 1.132 14.583 3.395 20.869 2.262 6.201 5.74 11.146 10.434 14.834 4.693 3.687 10.727 5.531 18.102 5.531zM996.095 268v-64.113c0-3.101-.168-7.04-.503-11.817-.335-4.861-1.383-9.722-3.143-14.583-1.76-4.861-4.651-8.925-8.674-12.194-3.939-3.268-9.554-4.903-16.845-4.903-2.934 0-6.077.461-9.429 1.383-3.352.922-6.495 2.724-9.428 5.406-2.934 2.598-5.364 6.453-7.292 11.565-1.843 5.113-2.765 11.901-2.765 20.366l-19.611-9.303c0-10.727 2.179-20.784 6.537-30.171 4.358-9.386 10.895-16.971 19.611-22.754 8.8-5.783 19.862-8.674 33.188-8.674 10.643 0 19.318 1.802 26.019 5.406 6.71 3.603 11.9 8.171 15.59 13.702 3.77 5.532 6.45 11.314 8.05 17.349 1.59 5.95 2.55 11.397 2.89 16.342.33 4.945.5 8.549.5 10.811V268h-34.695zm-92.776 0V132.231h30.423v45.005h4.274V268h-34.697zm197.811 3.771c-9.73 0-17.98-1.843-24.77-5.531-6.7-3.771-11.82-8.758-15.34-14.96-3.43-6.285-5.15-13.199-5.15-20.742 0-6.286.96-12.027 2.89-17.223 1.93-5.196 5.03-9.763 9.3-13.702 4.36-4.023 10.19-7.376 17.48-10.057 5.03-1.844 11.02-3.478 17.97-4.903 6.96-1.425 14.84-2.766 23.64-4.023 8.8-1.341 18.48-2.808 29.04-4.4l-12.32 6.789c0-8.046-1.93-13.954-5.79-17.726-3.85-3.771-10.3-5.657-19.35-5.657-5.03 0-10.27 1.215-15.72 3.646-5.45 2.43-9.26 6.746-11.44 12.948l-30.92-9.805c3.43-11.231 9.89-20.366 19.36-27.406 9.47-7.04 22.37-10.56 38.72-10.56 11.98 0 22.62 1.844 31.93 5.532 9.3 3.687 16.34 10.057 21.12 19.108 2.68 5.029 4.27 10.057 4.77 15.086.51 5.028.76 10.643.76 16.845V268h-29.92v-27.908l4.27 5.783c-6.62 9.135-13.78 15.756-21.5 19.862-7.62 4.023-17.3 6.034-29.03 6.034zm7.29-26.902c6.28 0 11.56-1.09 15.84-3.269 4.35-2.262 7.79-4.819 10.3-7.668 2.6-2.849 4.36-5.238 5.28-7.166 1.76-3.687 2.77-7.961 3.02-12.822.34-4.945.5-9.052.5-12.32l10.06 2.514c-10.14 1.676-18.35 3.101-24.64 4.274-6.28 1.09-11.35 2.096-15.21 3.018-3.85.921-7.25 1.927-10.18 3.017-3.35 1.341-6.08 2.807-8.17 4.4-2.01 1.508-3.52 3.184-4.53 5.028-.92 1.844-1.38 3.897-1.38 6.16 0 3.101.75 5.783 2.26 8.046 1.59 2.179 3.81 3.855 6.66 5.028 2.85 1.173 6.25 1.76 10.19 1.76zM1212.51 268V83.203h34.19V268h-34.19zm124.93 3.771c-17.1 0-30.92-3.855-41.48-11.565-10.48-7.794-16.85-18.773-19.11-32.937l34.95-5.28c1.42 6.37 4.56 11.356 9.42 14.96 4.95 3.604 11.19 5.406 18.73 5.406 6.21 0 10.98-1.174 14.34-3.52 3.35-2.431 5.02-5.783 5.02-10.057 0-2.682-.67-4.819-2.01-6.412-1.34-1.676-4.35-3.31-9.05-4.902-4.61-1.593-11.82-3.688-21.62-6.286-11.06-2.849-19.91-6.034-26.53-9.554-6.62-3.52-11.39-7.71-14.33-12.571-2.93-4.945-4.4-10.895-4.4-17.851 0-8.716 2.22-16.259 6.67-22.629 4.44-6.453 10.68-11.397 18.73-14.834 8.13-3.52 17.68-5.28 28.66-5.28 10.64 0 20.07 1.635 28.28 4.903 8.22 3.269 14.84 7.92 19.87 13.954 5.11 6.034 8.25 13.158 9.43 21.371l-34.95 6.286c-.59-5.028-2.77-9.009-6.54-11.943-3.77-2.933-8.88-4.651-15.34-5.154-6.28-.419-11.35.419-15.21 2.514-3.77 2.096-5.65 5.113-5.65 9.052 0 2.346.79 4.316 2.38 5.908 1.68 1.592 5.07 3.227 10.19 4.903 5.19 1.676 13.07 3.855 23.63 6.537 10.31 2.682 18.56 5.825 24.77 9.428 6.28 3.52 10.85 7.795 13.7 12.823 2.85 4.945 4.27 10.937 4.27 17.977 0 13.912-5.03 24.849-15.08 32.811-10.06 7.961-23.97 11.942-41.74 11.942z"/><path fill="#F4F4F4" d="M1424.4 268V86.975h34.2V268h-34.2zm213.44 3.771-52.8-52.547 21.12-21.12 52.54 52.548-20.86 21.119zm-63.87 0c-18.1 0-33.73-3.939-46.89-11.817-13.07-7.878-23.17-18.898-30.29-33.062-7.04-14.163-10.56-30.632-10.56-49.405s3.52-35.241 10.56-49.405c7.12-14.163 17.22-25.184 30.29-33.062 13.16-7.878 28.79-11.817 46.89-11.817 18.11 0 33.69 3.94 46.77 11.817 13.16 7.878 23.26 18.899 30.3 33.062 7.12 14.164 10.68 30.632 10.68 49.405s-3.56 35.242-10.68 49.405c-7.04 14.164-17.14 25.184-30.3 33.062-13.08 7.878-28.66 11.817-46.77 11.817zm0-32.182c11.49.168 21.04-2.305 28.67-7.417 7.62-5.112 13.32-12.362 17.09-21.748 3.86-9.387 5.79-20.366 5.79-32.937 0-12.571-1.93-23.466-5.79-32.685-3.77-9.219-9.47-16.384-17.09-21.497-7.63-5.112-17.18-7.752-28.67-7.92-11.48-.167-21.03 2.305-28.66 7.417-7.62 5.113-13.37 12.362-17.22 21.749-3.77 9.386-5.66 20.365-5.66 32.936 0 12.571 1.89 23.467 5.66 32.685 3.85 9.219 9.6 16.385 17.22 21.497 7.63 5.112 17.18 7.752 28.66 7.92zM282.804 107.56l29.559-29.559 75.705 75.706v97.12c.002 1.811-73.292 73.293-73.292 73.293l-29.559-29.559 62.435-62.434v-59.72l-64.848-64.847z"/><path fill="#F4F4F4" d="m236.05 154.309 28.955-28.955 55.498 55.497v40.417l-55.799 55.799-27.749-27.749 47.052-47.052-47.957-47.957z"/><rect width="41.802" height="41.802" x="248.117" y="201.361" fill="#F4F4F4" rx="11.09" transform="rotate(135 248.117 201.361)"/><path fill="#F4F4F4" d="m154.227 294.471-29.559 29.559-75.705-75.706s.002-95.309 0-97.12c-.002-1.811 73.292-73.293 73.292-73.293l29.559 29.559-62.435 62.434v59.72l64.848 64.847z"/><path fill="#F4F4F4" d="m200.981 247.722-28.955 28.955-55.497-55.497v-40.417l55.798-55.798 27.749 27.748-47.052 47.052 47.957 47.957z"/><rect width="41.802" height="41.802" x="188.914" y="200.67" fill="#F4F4F4" rx="11.09" transform="rotate(-45 188.914 200.67)"/></svg>